# File created by Blade
# Date/Time:  Thu Sep 25 17:14:50 2014
# Frame Rate: 120.000 fps
#------------------------------------------------------
:FULLY-SPECIFIED
:DEGREES
758
root -37.362268 31.449334 11.759310 186.347115 72.408638 178.631806
Spine -6.529237 -1.587741 -3.500066
Head -0.882707 -16.922276 16.937561
LeftShoulder -14.203786 19.685855 29.877878
LeftArm 18.929702 -20.535328 -15.994107
LeftForeArm 14.994606 -0.000000 10.233451
LeftHand -27.535955 -0.000000 -1.117577
LeftHandThumb1 -26.253704 0.000000 33.147579
RightShoulder -24.958986 10.225908 -37.443882
RightArm -16.533554 12.295188 26.417266
RightForeArm -27.489754 -0.000000 18.632110
RightHand -18.081972 -0.000000 1.890852
RightHandThumb1 -24.326973 -0.000000 -32.862282
LeftUpLeg 5.768717 3.837227 -6.115576
LeftLeg -3.516485 -0.000000 0.000000
LeftFoot -21.977614 16.850017 -25.367495
LeftToeBase 3.509826 -0.000000 -0.000000
RightUpLeg -30.181962 -18.210295 8.483222
RightLeg -2.120873 -0.000000 0.000000
RightFoot 33.064374 13.741492 3.379042
RightToeBase -15.454475 -0.000000 0.000000
759
root -37.372246 31.445749 11.763478 186.345091 72.577459 178.551743
Spine -6.522929 -1.518355 -3.474777
Head -0.971465 -16.893580 17.006175
LeftShoulder -14.236956 19.701969 29.823210
LeftArm 18.851700 -20.606961 -15.969950
LeftForeArm 14.948713 0.000000 10.286206
LeftHand -27.597134 -0.000000 -1.075409
LeftHandThumb1 -26.253704 0.000000 33.147579
RightShoulder -24.966999 10.212451 -37.384648
RightArm -16.391681 12.196630 26.439894
RightForeArm -27.624261 -0.000000 18.666962
RightHand -17.560375 -0.000000 1.823582
RightHandThumb1 -24.326973 -0.000000 -32.862282
LeftUpLeg 5.683388 3.816674 -6.170512
LeftLeg -3.532807 -0.000000 0.000000
LeftFoot -22.034120 16.957939 -25.404275
LeftToeBase 3.457422 -0.000000 -0.000000
RightUpLeg -30.341591 -18.088297 8.522396
RightLeg -2.041311 -0.000000 0.000000
RightFoot 33.170423 13.752907 3.321137
RightToeBase -15.700383 -0.000000 0.000000
760
root -37.380786 31.443958 11.766529 186.329196 72.744831 178.462616
Spine -6.515192 -1.478692 -3.450877
Head -1.043922 -16.858873 17.062856
LeftShoulder -14.226324 19.679460 29.797267
LeftArm 18.630617 -21.025797 -16.132894
LeftForeArm 15.329871 -0.000000 10.598991
LeftHand -27.622461 -0.000000 -1.148429
LeftHandThumb1 -26.253704 0.000000 33.147579
RightShoulder -24.919745 10.207345 -37.279716
RightArm -16.290473 12.135240 26.428336
RightForeArm -27.692690 -0.000000 18.766214
RightHand -17.526925 -0.000000 1.797426
RightHandThumb1 -24.326973 -0.000000 -32.862282
LeftUpLeg 5.604743 3.773733 -6.229799
LeftLeg -3.538782 -0.000000 0.000000
LeftFoot -22.076579 17.142940 -25.416922
LeftToeBase 3.358158 -0.000000 -0.000000
RightUpLeg -30.491064 -17.954886 8.544668
RightLeg -1.957143 -0.000000 0.000000
RightFoot 33.277872 13.754532 3.264601
RightToeBase -15.945248 -0.000000 0.000000
761
root -37.388371 31.442084 11.771376 186.408797 72.907018 178.467033
Spine -6.513240 -1.430988 -3.379470
Head -1.101417 -16.870181 17.086218
LeftShoulder -14.289133 19.780494 29.651748
LeftArm 18.666437 -20.899108 -15.995783
LeftForeArm 15.014220 0.000000 10.457107
LeftHand -27.567650 0.000000 -0.958647
LeftHandThumb1 -26.253704 0.000000 33.147579
RightShoulder -24.884755 10.269340 -37.221114
RightArm -16.230788 12.047700 26.398449
RightForeArm -27.762250 -0.000000 18.857065
RightHand -17.572618 -0.000000 1.705438
RightHandThumb1 -24.326973 -0.000000 -32.862282
LeftUpLeg 5.517490 3.786937 -6.256847
LeftLeg -3.544508 -0.000000 0.000000
LeftFoot -22.168386 17.201368 -25.467534
LeftToeBase 3.410119 -0.000000 -0.000000
RightUpLeg -30.649328 -17.792748 8.587753
RightLeg -1.840159 -0.000000 0.000000
RightFoot 33.344300 13.613805 3.238496
RightToeBase -16.134871 -0.000000 0.000000
762
root -37.396484 31.441931 11.774861 186.537267 73.056298 178.494676
Spine -6.550944 -1.400052 -3.285175
Head -1.144390 -16.870158 17.068458
LeftShoulder -14.289976 19.804730 29.534768
LeftArm 18.545374 -21.086451 -15.997029
LeftForeArm 14.463982 -0.000000 10.774534
LeftHand -28.536754 -0.000000 -1.030567
LeftHandThumb1 -26.253704 0.000000 33.147579
RightShoulder -24.858011 10.327093 -37.187670
RightArm -16.151246 12.006403 26.386936
RightForeArm -27.891999 -0.000000 18.893691
RightHand -17.284250 0.000000 1.545238
RightHandThumb1 -24.326973 -0.000000 -32.862282
LeftUpLeg 5.404040 3.811656 -6.275664
LeftLeg -3.546288 -0.000000 0.000000
LeftFoot -22.192060 17.282538 -25.480411
LeftToeBase 3.391443 -0.000000 -0.000000
RightUpLeg -30.861450 -17.696301 8.675261
RightLeg -1.719389 -0.000000 0.000000
RightFoot 33.522422 13.736908 3.046314
RightToeBase -16.704459 -0.000000 0.000000
763
root -37.405472 31.442444 11.776569 186.639109 73.206720 178.492330
Spine -6.579542 -1.355458 -3.199539
Head -1.190722 -16.890231 17.044717
LeftShoulder -14.272875 19.789962 29.451643
LeftArm 18.510799 -21.007304 -16.061133
LeftForeArm 14.821552 0.000000 10.600207
LeftHand -28.129457 0.000000 -0.318941
LeftHandThumb1 -26.253704 0.000000 33.147579
RightShoulder -24.859774 10.412887 -37.129701
RightArm -16.050567 11.981567 26.320657
RightForeArm -27.997937 -0.000000 18.879352
RightHand -19.045747 -0.000000 1.020573
RightHandThumb1 -24.326973 -0.000000 -32.862282
LeftUpLeg 5.298360 3.888644 -6.304989
LeftLeg -3.575462 -0.000000 0.000000
LeftFoot -22.203090 17.305278 -25.531924
LeftToeBase 3.395881 -0.000000 -0.000000
RightUpLeg -31.111994 -17.586301 8.749784
RightLeg -1.500396 -0.000000 0.000000
RightFoot 33.567383 13.739845 2.908324
RightToeBase -17.022091 -0.000000 0.000000
764
root -37.412591 31.443583 11.777913 186.722681 73.376342 178.463716
Spine -6.617332 -1.287720 -3.110366
Head -1.224071 -16.925569 16.959514
LeftShoulder -14.198201 19.783133 29.325068
LeftArm 18.373781 -20.977476 -16.067733
LeftForeArm 14.736332 -0.000000 10.566827
LeftHand -28.306607 -0.000000 -0.124747
LeftHandThumb1 -26.253704 0.000000 33.147579
RightShoulder -24.840233 10.489952 -37.077533
RightArm -15.981889 12.736689 26.145415
RightForeArm -28.887108 -0.000000 18.858959
RightHand -18.872435 -0.000000 1.097907
RightHandThumb1 -24.326973 -0.000000 -32.862282
LeftUpLeg 5.200926 3.969362 -6.342236
LeftLeg -3.622701 -0.000000 0.000000
LeftFoot -22.179489 17.356555 -25.544732
LeftToeBase 3.407869 -0.000000 -0.000000
RightUpLeg -31.389540 -17.415727 8.810512
RightLeg -1.226019 -0.000000 0.000000
RightFoot 33.602538 13.782714 2.455039
RightToeBase -17.819705 -0.000000 0.000000
765
root -37.421508 31.445905 11.782928 187.007430 73.557680 178.612659
Spine -6.679320 -1.205868 -2.965616
Head -1.274857 -16.911502 16.876592
LeftShoulder -14.127828 19.768692 29.206581
LeftArm 18.300708 -20.985318 -16.172346
LeftForeArm 14.567223 0.000000 10.547989
LeftHand -28.346039 -0.000000 0.101070
LeftHandThumb1 -26.253704 0.000000 33.147579
RightShoulder -24.804138 10.515471 -36.981410
RightArm -15.926142 12.696598 26.132418
RightForeArm -28.917975 -0.000000 18.955584
RightHand -18.836805 -0.000000 0.739109
RightHandThumb1 -24.326973 -0.000000 -32.862282
LeftUpLeg 5.071351 4.099559 -6.320223
LeftLeg -3.672620 -0.000000 0.000000
LeftFoot -22.146320 17.344323 -25.565457
LeftToeBase 3.418395 -0.000000 -0.000000
RightUpLeg -31.700838 -17.200933 8.926698
RightLeg -0.937537 -0.000000 0.000000
RightFoot 33.647981 13.675308 2.171218
RightToeBase -18.039562 -0.000000 0.000000
766
root -37.430370 31.448889 11.788649 187.389361 73.747398 178.834239
Spine -6.760725 -1.135768 -2.788915
Head -1.357699 -16.871072 16.803531
LeftShoulder -14.040684 19.713159 29.078944
LeftArm 18.036088 -21.394982 -16.417390
LeftForeArm 14.113588 0.000000 11.090357
LeftHand -29.389614 -0.000000 -0.216000
LeftHandThumb1 -26.253704 0.000000 33.147579
RightShoulder -24.762889 10.499375 -36.846490
RightArm -15.865393 12.623838 26.134743
RightForeArm -28.868842 -0.000000 19.165259
RightHand -18.967488 -0.000000 0.484572
RightHandThumb1 -24.326973 -0.000000 -32.862282
LeftUpLeg 4.919147 4.210431 -6.281083
LeftLeg -3.728192 -0.000000 0.000000
LeftFoot -22.098205 17.312946 -25.559371
LeftToeBase 3.329553 -0.000000 -0.000000
RightUpLeg -32.095554 -17.020599 9.112439
RightLeg -0.563831 -0.000000 0.000000
RightFoot 33.606728 13.646512 1.800915
RightToeBase -18.156822 -0.000000 0.000000
767
root -37.438546 31.451962 11.793132 187.774045 73.954577 179.050657
Spine -6.845553 -1.071361 -2.616208
Head -1.449844 -16.817294 16.724314
LeftShoulder -14.012823 19.747612 28.935141
LeftArm 17.980385 -21.525943 -16.663292
LeftForeArm 13.792777 0.000000 11.178062
LeftHand -29.477317 -0.000000 -0.054365
LeftHandThumb1 -26.253704 0.000000 33.147579
RightShoulder -24.681150 10.569174 -36.703395
RightArm -15.922511 11.787434 26.219076
RightForeArm -28.248056 -0.000000 19.549449
RightHand -19.160727 -0.000000 0.022636
RightHandThumb1 -24.326973 -0.000000 -32.862282
LeftUpLeg 4.796612 4.206869 -6.253074
LeftLeg -3.859559 -0.000000 0.000000
LeftFoot -22.063242 17.408841 -25.600736
LeftToeBase 3.316159 -0.000000 -0.000000
RightUpLeg -32.530459 -16.743934 9.258555
RightLeg -0.103185 -0.000000 0.000000
RightFoot 33.562057 13.497425 1.422490
RightToeBase -18.482362 -0.000000 0.000000
768
root -37.443481 31.454884 11.799018 188.245828 74.199243 179.377293
Spine -6.894992 -0.990533 -2.412912
Head -1.570582 -16.728044 16.633375
LeftShoulder -13.935686 19.724667 28.773360
LeftArm 17.820967 -21.680921 -16.912289
LeftForeArm 13.555861 -0.000000 11.223986
LeftHand -29.546474 -0.000000 0.081906
LeftHandThumb1 -26.253704 0.000000 33.147579
RightShoulder -24.641012 10.707098 -36.591179
RightArm -15.887778 11.491120 26.260085
RightForeArm -28.174929 0.000000 19.716520
RightHand -18.789351 -0.000000 -0.573203
RightHandThumb1 -24.326973 -0.000000 -32.862282
LeftUpLeg 4.685171 4.267622 -6.197500
LeftLeg -3.953115 -0.000000 0.000000
LeftFoot -22.087989 17.462305 -25.644918
LeftToeBase 3.319765 -0.000000 -0.000000
RightUpLeg -32.965800 -16.479065 9.460119
RightLeg 0.402539 -0.000000 -0.000000
RightFoot 33.428281 13.434093 0.983487
RightToeBase -18.239158 -0.000000 0.000000
